<svg width="35" height="35" viewBox="0 0 35 35" fill="none" xmlns="http://www.w3.org/2000/svg">
<path d="M28.1823 8.426C29.1654 9.89731 29.1654 11.9455 29.1654 16.0418C29.1654 20.1382 29.1654 22.1864 28.1823 23.6577C27.7567 24.2946 27.2098 24.8415 26.5729 25.2671C25.2876 26.1259 23.562 26.2345 20.4154 26.2482V26.2502L18.8031 29.4748C18.2656 30.5496 16.7318 30.5496 16.1943 29.4748L14.582 26.2502V26.2482C11.4354 26.2345 9.70984 26.1259 8.42454 25.2671C7.7876 24.8415 7.24072 24.2946 6.81513 23.6577C5.83203 22.1864 5.83203 20.1382 5.83203 16.0418C5.83203 11.9455 5.83203 9.89731 6.81513 8.426C7.24072 7.78906 7.7876 7.24218 8.42454 6.81659C9.89584 5.8335 11.944 5.8335 16.0404 5.8335H18.957C23.0534 5.8335 25.1016 5.8335 26.5729 6.81659C27.2098 7.24218 27.7567 7.78906 28.1823 8.426Z" stroke="#222222" stroke-width="2" stroke-linecap="round" stroke-linejoin="round"/>
<path d="M13.125 13.125L21.875 13.125" stroke="#222222" stroke-width="2" stroke-linecap="round" stroke-linejoin="round"/>
<path d="M13.125 18.9585H17.5" stroke="#222222" stroke-width="2" stroke-linecap="round" stroke-linejoin="round"/>
</svg>
