<svg width="678" height="385" viewBox="0 0 678 385" fill="none" xmlns="http://www.w3.org/2000/svg">
<g filter="url(#filter0_d_2_1615)">
<path d="M56.1594 243.544C98.0479 253.156 118.992 272.38 98.0479 279.807C60.0865 286.798 74.9219 307.332 105.466 303.837C143.864 288.109 157.39 295.973 136.009 317.818C119.254 348.227 149.972 349.712 165.244 344.032C181.098 331.945 200.151 324.372 195.351 340.1C184.741 374.871 224.15 382.917 247.276 364.13C276.51 389.471 316.217 361.072 304.872 324.372C332.798 360.635 353.742 335.731 357.669 303.837C390.831 268.011 416.326 307.332 420.066 324.372C428.793 364.13 468.35 350.586 482.026 327.867C520.424 264.079 551.84 303.837 566.676 307.332C599.401 338.353 620.782 312.575 620.782 291.604C655.253 270.632 646.962 243.544 624.273 230.874C653.944 191.727 598.238 194.756 566.676 201.164C544.859 201.164 520.424 184.125 547.913 163.59C578.457 140.774 537.878 116.841 528.714 127.327C510.97 139.561 502.147 154.415 497.298 127.327C489.008 81.0152 448.428 112.909 436.21 112.909C466.754 67.4711 436.21 71.8402 417.012 75.3355C404.794 -20.7838 385.159 69.6557 362.469 67.4711C333.234 24.2175 283.492 19.8484 271.275 55.6747C252.948 84.0736 247.276 104.171 227.641 78.8307C211.496 42.5675 171.789 54.364 178.771 98.4915C176.153 123.832 159.135 159.658 113.756 112.909C85.394 98.4915 56.1594 112.909 79.7216 146.551C96.8578 171.018 84.085 178.445 56.1594 184.125C35.2067 188.387 5.54407 197.232 8.16209 210.339C8.16209 223.447 37.3968 241.36 56.1594 243.544Z" fill="#033B73"/>
</g>
<defs>
<filter id="filter0_d_2_1615" x="0.4" y="0.4" width="677.2" height="384.2" filterUnits="userSpaceOnUse" color-interpolation-filters="sRGB">
<feFlood flood-opacity="0" result="BackgroundImageFix"/>
<feColorMatrix in="SourceAlpha" type="matrix" values="0 0 0 0 0 0 0 0 0 0 0 0 0 0 0 0 0 0 127 0" result="hardAlpha"/>
<feOffset dx="13" dy="-10"/>
<feGaussianBlur stdDeviation="10.3"/>
<feComposite in2="hardAlpha" operator="out"/>
<feColorMatrix type="matrix" values="0 0 0 0 0 0 0 0 0 0 0 0 0 0 0 0 0 0 0.25 0"/>
<feBlend mode="normal" in2="BackgroundImageFix" result="effect1_dropShadow_2_1615"/>
<feBlend mode="normal" in="SourceGraphic" in2="effect1_dropShadow_2_1615" result="shape"/>
</filter>
</defs>
</svg>
