<svg width="591" height="289" viewBox="0 0 591 289" fill="none" xmlns="http://www.w3.org/2000/svg">
<g filter="url(#filter0_d_2_1644)">
<path d="M14.2092 160.166C-14.0714 166.09 29.4842 182.092 54.7971 189.352C54.7971 196.322 54.7971 201.549 77.4914 216.36C64.3985 231.606 81.4193 233.784 120.698 233.784C115.461 251.209 113.279 267.762 141.21 260.356C163.904 255.565 180.052 255.565 183.544 279.959C220.64 302.175 242.025 265.148 242.025 260.356C242.025 242.496 238.97 228.992 268.647 233.784C281.304 242.496 280.867 245.546 295.269 260.356C308.886 261.402 321.019 241.916 324.074 226.814C344.586 241.19 350.696 230.735 358.552 222.458C372.345 207.926 369.899 233.784 378.191 248.159C410.05 279.088 417.47 272.118 426.635 265.148C444.092 243.368 457.039 226.088 472.896 222.458C506.065 217.231 513.047 228.992 534.432 248.159C553.635 256.436 534.432 232.042 537.924 222.458C543.598 191.094 574.409 217.754 580.694 207.647C588.55 195.015 558 189.352 567.601 168.878C567.601 155.374 553.199 160.166 534.432 160.166C521.776 163.651 480.315 160.166 472.896 149.275C455.875 139.256 482.852 129.377 491.662 103.972C495.59 92.6459 472.896 103.972 460.24 110.07C448.091 115.924 442.637 113.846 439.727 103.972C436.818 94.0979 425.151 76.1797 401.758 83.498C372.517 92.6458 385.61 73.4789 378.191 56.9257C376.445 32.967 355.06 56.9257 350.696 23.8192C356.37 1.16735 310.981 26.4328 300.943 32.967C287.977 41.4071 263.41 23.8192 254.682 13.8001C234.169 1.16736 231.551 59.1037 187.035 60.8462C157.358 31.6602 168.705 66.5091 148.193 83.498C127.681 100.051 122.88 103.972 106.732 121.396C97.1307 129.237 87.9657 126.188 67.0171 103.972C53.9243 85.2404 54.7971 113.12 67.0171 149.275C47.3778 155.374 43.45 155.81 14.2092 160.166Z" fill="#018ABE"/>
</g>
<defs>
<filter id="filter0_d_2_1644" x="0" y="0" width="591" height="289" filterUnits="userSpaceOnUse" color-interpolation-filters="sRGB">
<feFlood flood-opacity="0" result="BackgroundImageFix"/>
<feColorMatrix in="SourceAlpha" type="matrix" values="0 0 0 0 0 0 0 0 0 0 0 0 0 0 0 0 0 0 127 0" result="hardAlpha"/>
<feOffset dx="2" dy="-5"/>
<feGaussianBlur stdDeviation="3.5"/>
<feComposite in2="hardAlpha" operator="out"/>
<feColorMatrix type="matrix" values="0 0 0 0 0 0 0 0 0 0 0 0 0 0 0 0 0 0 0.25 0"/>
<feBlend mode="normal" in2="BackgroundImageFix" result="effect1_dropShadow_2_1644"/>
<feBlend mode="normal" in="SourceGraphic" in2="effect1_dropShadow_2_1644" result="shape"/>
</filter>
</defs>
</svg>
