<svg  viewBox="0 0 33 33" fill="none" xmlns="http://www.w3.org/2000/svg">
<path d="M26.6217 23.375C27.6475 24.0021 28.1875 24.7134 28.1875 25.4375C28.1875 26.1616 27.6475 26.8729 26.6217 27.5C25.5959 28.1271 24.1205 28.6478 22.3438 29.0099C20.567 29.3719 18.5516 29.5625 16.5 29.5625C14.4484 29.5625 12.433 29.3719 10.6563 29.0099C8.87953 28.6478 7.40412 28.1271 6.37833 27.5C5.35254 26.8729 4.8125 26.1616 4.8125 25.4375C4.8125 24.7134 5.35254 24.0021 6.37833 23.375" stroke="#222222" stroke-linecap="round"/>
<path d="M26.8125 13.75C26.8125 20.8252 18.8774 25.5389 16.9284 26.59C16.6591 26.7352 16.3409 26.7352 16.0716 26.59C14.1226 25.5389 6.1875 20.8252 6.1875 13.75C6.1875 7.5625 11.1843 3.4375 16.5 3.4375C22 3.4375 26.8125 7.5625 26.8125 13.75Z" stroke="#222222"/>
<circle cx="16.5" cy="13.75" r="5" stroke="#222222"/>
</svg>
