<svg width="1728" height="216" viewBox="0 0 1728 216" fill="none" xmlns="http://www.w3.org/2000/svg">
<path d="M150.353 62.3234C94.3042 18.0896 26.8152 6.5927 0 8.76186V216H1728V14.2682C1717.46 18.4396 1681.63 23.7791 1645.1 57.3176C1583.27 117.887 1502.47 117.887 1483.5 117.887C1416.41 117.887 1363.77 79.6581 1344.64 65.761L1344.04 65.3269C1184.55 -59.817 1058.79 50.3096 1036.31 65.3269C968.509 121.892 902.115 117.887 883.145 117.887C803.754 117.887 744.737 63.8251 727.523 50.3096C591.223 -38.2922 524.477 8.76185 461.245 50.3096C354.453 129.4 291.22 114.884 272.953 114.884C254.686 114.884 173.186 80.3441 150.353 62.3234Z" fill="white"/>
</svg>

