<?xml version="1.0" encoding="utf-8" standalone="no"?>
<!DOCTYPE svg PUBLIC "-//W3C//DTD SVG 1.1//EN"
  "http://www.w3.org/Graphics/SVG/1.1/DTD/svg11.dtd">
<svg xmlns:xlink="http://www.w3.org/1999/xlink" width="1008pt" height="288pt" viewBox="0 0 1008 288" xmlns="http://www.w3.org/2000/svg" version="1.1">
 <metadata>
  <rdf:RDF xmlns:dc="http://purl.org/dc/elements/1.1/" xmlns:cc="http://creativecommons.org/ns#" xmlns:rdf="http://www.w3.org/1999/02/22-rdf-syntax-ns#">
   <cc:Work>
    <dc:type rdf:resource="http://purl.org/dc/dcmitype/StillImage"/>
    <dc:date>2025-05-14T14:48:58.068103</dc:date>
    <dc:format>image/svg+xml</dc:format>
    <dc:creator>
     <cc:Agent>
      <dc:title>Matplotlib v3.6.3, https://matplotlib.org/</dc:title>
     </cc:Agent>
    </dc:creator>
   </cc:Work>
  </rdf:RDF>
 </metadata>
 <defs>
  <style type="text/css">*{stroke-linejoin: round; stroke-linecap: butt}</style>
 </defs>
 <g id="figure_1">
  <g id="patch_1">
   <path d="M 0 288 
L 1008 288 
L 1008 0 
L 0 0 
L 0 288 
z
" style="fill: none"/>
  </g>
  <g id="axes_1">
   <g id="PolyCollection_1">
    <defs>
     <path id="m999f120ba1" d="M 161.509091 -243.36 
L 161.509091 -101.054066 
L 162.219984 -101.799904 
L 162.930876 -102.545625 
L 163.641769 -103.291109 
L 164.352662 -104.036239 
L 165.063554 -104.780898 
L 165.774447 -105.524966 
L 166.48534 -106.268328 
L 167.196233 -107.010864 
L 167.907125 -107.752458 
L 168.618018 -108.492992 
L 169.328911 -109.232349 
L 170.039803 -109.970412 
L 170.750696 -110.707064 
L 171.461589 -111.442188 
L 172.172482 -112.175669 
L 172.883374 -112.90739 
L 173.594267 -113.637236 
L 174.30516 -114.365091 
L 175.016052 -115.090839 
L 175.726945 -115.814367 
L 176.437838 -116.535559 
L 177.148731 -117.254301 
L 177.859623 -117.97048 
L 178.570516 -118.683983 
L 179.281409 -119.394696 
L 179.992301 -120.102506 
L 180.703194 -120.807303 
L 181.414087 -121.508975 
L 182.12498 -122.207409 
L 182.835872 -122.902497 
L 183.546765 -123.594128 
L 184.257658 -124.282192 
L 184.96855 -124.966581 
L 185.679443 -125.647187 
L 186.390336 -126.323901 
L 187.101229 -126.996616 
L 187.812121 -127.665227 
L 188.523014 -128.329627 
L 189.233907 -128.989712 
L 189.944799 -129.645376 
L 190.655692 -130.296516 
L 191.366585 -130.943029 
L 192.077477 -131.584813 
L 192.78837 -132.221766 
L 193.499263 -132.853788 
L 194.210156 -133.480778 
L 194.921048 -134.102637 
L 195.631941 -134.719267 
L 196.342834 -135.33057 
L 197.053726 -135.93645 
L 197.764619 -136.536811 
L 198.475512 -137.131557 
L 199.186405 -137.720594 
L 199.897297 -138.30383 
L 200.60819 -138.881172 
L 201.319083 -139.452528 
L 202.029975 -140.017809 
L 202.740868 -140.576925 
L 203.451761 -141.129787 
L 204.162654 -141.676308 
L 204.873546 -142.216402 
L 205.584439 -142.749982 
L 206.295332 -143.276965 
L 207.006224 -143.797267 
L 207.717117 -144.310806 
L 208.42801 -144.817501 
L 209.138903 -145.317271 
L 209.849795 -145.810037 
L 210.560688 -146.295721 
L 211.271581 -146.774248 
L 211.982473 -147.24554 
L 212.693366 -147.709523 
L 213.404259 -148.166124 
L 214.115152 -148.61527 
L 214.826044 -149.056891 
L 215.536937 -149.490917 
L 216.24783 -149.917278 
L 216.958722 -150.335908 
L 217.669615 -150.746741 
L 218.380508 -151.14971 
L 219.0914 -151.544753 
L 219.802293 -151.931807 
L 220.513186 -152.310811 
L 221.224079 -152.681704 
L 221.934971 -153.044429 
L 222.645864 -153.398927 
L 223.356757 -153.745143 
L 224.067649 -154.083021 
L 224.778542 -154.412509 
L 225.489435 -154.733554 
L 226.200328 -155.046106 
L 226.91122 -155.350114 
L 227.622113 -155.645531 
L 228.333006 -155.932311 
L 229.043898 -156.210407 
L 229.754791 -156.479776 
L 230.465684 -156.740375 
L 231.176577 -156.992163 
L 231.887469 -157.2351 
L 232.598362 -157.469147 
L 233.309255 -157.694268 
L 234.020147 -157.910427 
L 234.73104 -158.11759 
L 235.441933 -158.315723 
L 236.152826 -158.504797 
L 236.863718 -158.68478 
L 237.574611 -158.855644 
L 238.285504 -159.017362 
L 238.996396 -159.169909 
L 239.707289 -159.313261 
L 240.418182 -159.447394 
L 241.129075 -159.572288 
L 241.839967 -159.687922 
L 242.55086 -159.794279 
L 243.261753 -159.891342 
L 243.972645 -159.979095 
L 244.683538 -160.057524 
L 245.394431 -160.126618 
L 246.105324 -160.186364 
L 246.816216 -160.236754 
L 247.527109 -160.27778 
L 248.238002 -160.309435 
L 248.948894 -160.331714 
L 249.659787 -160.344614 
L 250.37068 -160.348132 
L 251.081572 -160.342268 
L 251.792465 -160.327023 
L 252.503358 -160.3024 
L 253.214251 -160.268402 
L 253.925143 -160.225034 
L 254.636036 -160.172304 
L 255.346929 -160.11022 
L 256.057821 -160.038792 
L 256.768714 -159.95803 
L 257.479607 -159.867948 
L 258.1905 -159.768561 
L 258.901392 -159.659883 
L 259.612285 -159.541932 
L 260.323178 -159.414726 
L 261.03407 -159.278286 
L 261.744963 -159.132634 
L 262.455856 -158.977792 
L 263.166749 -158.813784 
L 263.877641 -158.640638 
L 264.588534 -158.45838 
L 265.299427 -158.267038 
L 266.010319 -158.066644 
L 266.721212 -157.857229 
L 267.432105 -157.638827 
L 268.142998 -157.411471 
L 268.85389 -157.175197 
L 269.564783 -156.930044 
L 270.275676 -156.67605 
L 270.986568 -156.413254 
L 271.697461 -156.141699 
L 272.408354 -155.861428 
L 273.119247 -155.572485 
L 273.830139 -155.274916 
L 274.541032 -154.968767 
L 275.251925 -154.654087 
L 275.962817 -154.330927 
L 276.67371 -153.999336 
L 277.384603 -153.659368 
L 278.095495 -153.311077 
L 278.806388 -152.954517 
L 279.517281 -152.589744 
L 280.228174 -152.216818 
L 280.939066 -151.835796 
L 281.649959 -151.446739 
L 282.360852 -151.049708 
L 283.071744 -150.644767 
L 283.782637 -150.231979 
L 284.49353 -149.81141 
L 285.204423 -149.383126 
L 285.915315 -148.947195 
L 286.626208 -148.503686 
L 287.337101 -148.052669 
L 288.047993 -147.594216 
L 288.758886 -147.128399 
L 289.469779 -146.655291 
L 290.180672 -146.174968 
L 290.891564 -145.687506 
L 291.602457 -145.192982 
L 292.31335 -144.691473 
L 293.024242 -144.18306 
L 293.735135 -143.667822 
L 294.446028 -143.145842 
L 295.156921 -142.617202 
L 295.867813 -142.081986 
L 296.578706 -141.540277 
L 297.289599 -140.992163 
L 298.000491 -140.437729 
L 298.711384 -139.877064 
L 299.422277 -139.310255 
L 300.13317 -138.737394 
L 300.844062 -138.15857 
L 301.554955 -137.573875 
L 302.265848 -136.983402 
L 302.97674 -136.387243 
L 303.687633 -135.785494 
L 304.398526 -135.178249 
L 305.109419 -134.565605 
L 305.820311 -133.947659 
L 306.531204 -133.324508 
L 307.242097 -132.69625 
L 307.952989 -132.062987 
L 308.663882 -131.424816 
L 309.374775 -130.78184 
L 310.085667 -130.134161 
L 310.79656 -129.48188 
L 311.507453 -128.825101 
L 312.218346 -128.163928 
L 312.929238 -127.498465 
L 313.640131 -126.828818 
L 314.351024 -126.155093 
L 315.061916 -125.477396 
L 315.772809 -124.795835 
L 316.483702 -124.110517 
L 317.194595 -123.42155 
L 317.905487 -122.729045 
L 318.61638 -122.03311 
L 319.327273 -121.333856 
L 320.038165 -120.631393 
L 320.749058 -119.925832 
L 321.459951 -119.217285 
L 322.170844 -118.505864 
L 322.881736 -117.791682 
L 323.592629 -117.074851 
L 324.303522 -116.355486 
L 325.014414 -115.633699 
L 325.725307 -114.909606 
L 326.4362 -114.18332 
L 327.147093 -113.454957 
L 327.857985 -112.724631 
L 328.568878 -111.992459 
L 329.279771 -111.258557 
L 329.990663 -110.523039 
L 330.701556 -109.786024 
L 331.412449 -109.047626 
L 332.123342 -108.307964 
L 332.834234 -107.567154 
L 333.545127 -106.825314 
L 334.25602 -106.08256 
L 334.966912 -105.339011 
L 335.677805 -104.594784 
L 336.388698 -103.849996 
L 337.09959 -103.104766 
L 337.810483 -102.359212 
L 338.521376 -101.613451 
L 339.232269 -100.867602 
L 339.943161 -100.121782 
L 340.654054 -99.376109 
L 341.364947 -98.630703 
L 342.075839 -97.885679 
L 342.786732 -97.141157 
L 343.497625 -96.397254 
L 344.208518 -95.654088 
L 344.91941 -94.911776 
L 345.630303 -94.170436 
L 346.341196 -93.430186 
L 347.052088 -92.691142 
L 347.762981 -91.95342 
L 348.473874 -91.217139 
L 349.184767 -90.482415 
L 349.895659 -89.749363 
L 350.606552 -89.0181 
L 351.317445 -88.288741 
L 352.028337 -87.561402 
L 352.73923 -86.836198 
L 353.450123 -86.113244 
L 354.161016 -85.392653 
L 354.871908 -84.674541 
L 355.582801 -83.959021 
L 356.293694 -83.246205 
L 357.004586 -82.536207 
L 357.715479 -81.829139 
L 358.426372 -81.125113 
L 359.137265 -80.424241 
L 359.848157 -79.726632 
L 360.55905 -79.032398 
L 361.269943 -78.341649 
L 361.980835 -77.654493 
L 362.691728 -76.97104 
L 363.402621 -76.291398 
L 364.113514 -75.615673 
L 364.824406 -74.943974 
L 365.535299 -74.276406 
L 366.246192 -73.613075 
L 366.957084 -72.954086 
L 367.667977 -72.299543 
L 368.37887 -71.64955 
L 369.089762 -71.004209 
L 369.800655 -70.363623 
L 370.511548 -69.727894 
L 371.222441 -69.097121 
L 371.933333 -68.471404 
L 372.644226 -67.850843 
L 373.355119 -67.235536 
L 374.066011 -66.625579 
L 374.776904 -66.02107 
L 375.487797 -65.422105 
L 376.19869 -64.828777 
L 376.909582 -64.241181 
L 377.620475 -63.65941 
L 378.331368 -63.083556 
L 379.04226 -62.51371 
L 379.753153 -61.949962 
L 380.464046 -61.392402 
L 381.174939 -60.841117 
L 381.885831 -60.296194 
L 382.596724 -59.757721 
L 383.307617 -59.225782 
L 384.018509 -58.700462 
L 384.729402 -58.181843 
L 385.440295 -57.670007 
L 386.151188 -57.165036 
L 386.86208 -56.66701 
L 387.572973 -56.176007 
L 388.283866 -55.692105 
L 388.994758 -55.21538 
L 389.705651 -54.745908 
L 390.416544 -54.283764 
L 391.127437 -53.82902 
L 391.838329 -53.381748 
L 392.549222 -52.942019 
L 393.260115 -52.509903 
L 393.971007 -52.085469 
L 394.6819 -51.668782 
L 395.392793 -51.259909 
L 396.103686 -50.858915 
L 396.814578 -50.465864 
L 397.525471 -50.080817 
L 398.236364 -49.703835 
L 398.947256 -49.334978 
L 399.658149 -48.974305 
L 400.369042 -48.621872 
L 401.079934 -48.277736 
L 401.790827 -47.94195 
L 402.50172 -47.614568 
L 403.212613 -47.295642 
L 403.923505 -46.985221 
L 404.634398 -46.683356 
L 405.345291 -46.390094 
L 406.056183 -46.105481 
L 406.767076 -45.829563 
L 407.477969 -45.562382 
L 408.188862 -45.303982 
L 408.899754 -45.054404 
L 409.610647 -44.813686 
L 410.32154 -44.581866 
L 411.032432 -44.358982 
L 411.743325 -44.145069 
L 412.454218 -43.940161 
L 413.165111 -43.744289 
L 413.876003 -43.557486 
L 414.586896 -43.37978 
L 415.297789 -43.2112 
L 416.008681 -43.051772 
L 416.719574 -42.901522 
L 417.430467 -42.760473 
L 418.14136 -42.628647 
L 418.852252 -42.506067 
L 419.563145 -42.39275 
L 420.274038 -42.288715 
L 420.98493 -42.193978 
L 421.695823 -42.108555 
L 422.406716 -42.032459 
L 423.117609 -41.965701 
L 423.828501 -41.908293 
L 424.539394 -41.860243 
L 425.250287 -41.821559 
L 425.961179 -41.792248 
L 426.672072 -41.772314 
L 427.382965 -41.761759 
L 428.093857 -41.760586 
L 428.80475 -41.768796 
L 429.515643 -41.786385 
L 430.226536 -41.813353 
L 430.937428 -41.849694 
L 431.648321 -41.895403 
L 432.359214 -41.950472 
L 433.070106 -42.014893 
L 433.780999 -42.088656 
L 434.491892 -42.171749 
L 435.202785 -42.264159 
L 435.913677 -42.36587 
L 436.62457 -42.476868 
L 437.335463 -42.597135 
L 438.046355 -42.726651 
L 438.757248 -42.865396 
L 439.468141 -43.013348 
L 440.179034 -43.170484 
L 440.889926 -43.336778 
L 441.600819 -43.512205 
L 442.311712 -43.696737 
L 443.022604 -43.890345 
L 443.733497 -44.092997 
L 444.44439 -44.304662 
L 445.155283 -44.525306 
L 445.866175 -44.754895 
L 446.577068 -44.993392 
L 447.287961 -45.240759 
L 447.998853 -45.496958 
L 448.709746 -45.761947 
L 449.420639 -46.035685 
L 450.131532 -46.318128 
L 450.842424 -46.609232 
L 451.553317 -46.908951 
L 452.26421 -47.217237 
L 452.975102 -47.534042 
L 453.685995 -47.859315 
L 454.396888 -48.193004 
L 455.107781 -48.535058 
L 455.818673 -48.885422 
L 456.529566 -49.244041 
L 457.240459 -49.610857 
L 457.951351 -49.985813 
L 458.662244 -50.368849 
L 459.373137 -50.759905 
L 460.084029 -51.15892 
L 460.794922 -51.565828 
L 461.505815 -51.980568 
L 462.216708 -52.403072 
L 462.9276 -52.833274 
L 463.638493 -53.271106 
L 464.349386 -53.716499 
L 465.060278 -54.169381 
L 465.771171 -54.629682 
L 466.482064 -55.097329 
L 467.192957 -55.572248 
L 467.903849 -56.054363 
L 468.614742 -56.543598 
L 469.325635 -57.039876 
L 470.036527 -57.543118 
L 470.74742 -58.053245 
L 471.458313 -58.570175 
L 472.169206 -59.093828 
L 472.880098 -59.624121 
L 473.590991 -60.160968 
L 474.301884 -60.704286 
L 475.012776 -61.253989 
L 475.723669 -61.809988 
L 476.434562 -62.372198 
L 477.145455 -62.940528 
L 477.856347 -63.514889 
L 478.56724 -64.095189 
L 479.278133 -64.681337 
L 479.989025 -65.273241 
L 480.699918 -65.870806 
L 481.410811 -66.473938 
L 482.121704 -67.082541 
L 482.832596 -67.69652 
L 483.543489 -68.315777 
L 484.254382 -68.940214 
L 484.965274 -69.569732 
L 485.676167 -70.204232 
L 486.38706 -70.843613 
L 487.097952 -71.487774 
L 487.808845 -72.136614 
L 488.519738 -72.790029 
L 489.230631 -73.447916 
L 489.941523 -74.110172 
L 490.652416 -74.77669 
L 491.363309 -75.447367 
L 492.074201 -76.122095 
L 492.785094 -76.800768 
L 493.495987 -77.483279 
L 494.20688 -78.169519 
L 494.917772 -78.85938 
L 495.628665 -79.552753 
L 496.339558 -80.249528 
L 497.05045 -80.949595 
L 497.761343 -81.652843 
L 498.472236 -82.359161 
L 499.183129 -83.068437 
L 499.894021 -83.780559 
L 500.604914 -84.495414 
L 501.315807 -85.212889 
L 502.026699 -85.93287 
L 502.737592 -86.655244 
L 503.448485 -87.379896 
L 504.159378 -88.106712 
L 504.87027 -88.835577 
L 505.581163 -89.566375 
L 506.292056 -90.29899 
L 507.002948 -91.033308 
L 507.713841 -91.769211 
L 508.424734 -92.506583 
L 509.135627 -93.245307 
L 509.846519 -93.985267 
L 510.557412 -94.726346 
L 511.268305 -95.468425 
L 511.979197 -96.211389 
L 512.69009 -96.955119 
L 513.400983 -97.699497 
L 514.111876 -98.444406 
L 514.822768 -99.189728 
L 515.533661 -99.935345 
L 516.244554 -100.681139 
L 516.955446 -101.426992 
L 517.666339 -102.172787 
L 518.377232 -102.918404 
L 519.088124 -103.663726 
L 519.799017 -104.408635 
L 520.50991 -105.153013 
L 521.220803 -105.896743 
L 521.931695 -106.639706 
L 522.642588 -107.381786 
L 523.353481 -108.122865 
L 524.064373 -108.862825 
L 524.775266 -109.601549 
L 525.486159 -110.338921 
L 526.197052 -111.074824 
L 526.907944 -111.809141 
L 527.618837 -112.541757 
L 528.32973 -113.272555 
L 529.040622 -114.001419 
L 529.751515 -114.728235 
L 530.462408 -115.452888 
L 531.173301 -116.175262 
L 531.884193 -116.895243 
L 532.595086 -117.612718 
L 533.305979 -118.327573 
L 534.016871 -119.039695 
L 534.727764 -119.748971 
L 535.438657 -120.455289 
L 536.14955 -121.158537 
L 536.860442 -121.858604 
L 537.571335 -122.555379 
L 538.282228 -123.248752 
L 538.99312 -123.938613 
L 539.704013 -124.624853 
L 540.414906 -125.307364 
L 541.125799 -125.986037 
L 541.836691 -126.660765 
L 542.547584 -127.331441 
L 543.258477 -127.99796 
L 543.969369 -128.660215 
L 544.680262 -129.318103 
L 545.391155 -129.971518 
L 546.102048 -130.620357 
L 546.81294 -131.264519 
L 547.523833 -131.9039 
L 548.234726 -132.5384 
L 548.945618 -133.167918 
L 549.656511 -133.792355 
L 550.367404 -134.411612 
L 551.078296 -135.025591 
L 551.789189 -135.634194 
L 552.500082 -136.237326 
L 553.210975 -136.834891 
L 553.921867 -137.426795 
L 554.63276 -138.012943 
L 555.343653 -138.593243 
L 556.054545 -139.167604 
L 556.765438 -139.735934 
L 557.476331 -140.298143 
L 558.187224 -140.854143 
L 558.898116 -141.403846 
L 559.609009 -141.947164 
L 560.319902 -142.484011 
L 561.030794 -143.014303 
L 561.741687 -143.537956 
L 562.45258 -144.054887 
L 563.163473 -144.565014 
L 563.874365 -145.068256 
L 564.585258 -145.564534 
L 565.296151 -146.053769 
L 566.007043 -146.535884 
L 566.717936 -147.010803 
L 567.428829 -147.478449 
L 568.139722 -147.93875 
L 568.850614 -148.391633 
L 569.561507 -148.837026 
L 570.2724 -149.274858 
L 570.983292 -149.70506 
L 571.694185 -150.127564 
L 572.405078 -150.542303 
L 573.115971 -150.949212 
L 573.826863 -151.348226 
L 574.537756 -151.739283 
L 575.248649 -152.122319 
L 575.959541 -152.497275 
L 576.670434 -152.864091 
L 577.381327 -153.22271 
L 578.092219 -153.573073 
L 578.803112 -153.915127 
L 579.514005 -154.248817 
L 580.224898 -154.57409 
L 580.93579 -154.890895 
L 581.646683 -155.199181 
L 582.357576 -155.4989 
L 583.068468 -155.790004 
L 583.779361 -156.072447 
L 584.490254 -156.346185 
L 585.201147 -156.611174 
L 585.912039 -156.867373 
L 586.622932 -157.11474 
L 587.333825 -157.353237 
L 588.044717 -157.582826 
L 588.75561 -157.80347 
L 589.466503 -158.015135 
L 590.177396 -158.217787 
L 590.888288 -158.411395 
L 591.599181 -158.595926 
L 592.310074 -158.771353 
L 593.020966 -158.937648 
L 593.731859 -159.094784 
L 594.442752 -159.242736 
L 595.153645 -159.381481 
L 595.864537 -159.510997 
L 596.57543 -159.631263 
L 597.286323 -159.742261 
L 597.997215 -159.843973 
L 598.708108 -159.936383 
L 599.419001 -160.019476 
L 600.129894 -160.093239 
L 600.840786 -160.15766 
L 601.551679 -160.212729 
L 602.262572 -160.258438 
L 602.973464 -160.294779 
L 603.684357 -160.321747 
L 604.39525 -160.339336 
L 605.106143 -160.347545 
L 605.817035 -160.346373 
L 606.527928 -160.335818 
L 607.238821 -160.315884 
L 607.949713 -160.286572 
L 608.660606 -160.247889 
L 609.371499 -160.199839 
L 610.082391 -160.142431 
L 610.793284 -160.075673 
L 611.504177 -159.999577 
L 612.21507 -159.914153 
L 612.925962 -159.819417 
L 613.636855 -159.715382 
L 614.347748 -159.602065 
L 615.05864 -159.479484 
L 615.769533 -159.347659 
L 616.480426 -159.20661 
L 617.191319 -159.05636 
L 617.902211 -158.896932 
L 618.613104 -158.728352 
L 619.323997 -158.550646 
L 620.034889 -158.363842 
L 620.745782 -158.167971 
L 621.456675 -157.963062 
L 622.167568 -157.749149 
L 622.87846 -157.526266 
L 623.589353 -157.294446 
L 624.300246 -157.053728 
L 625.011138 -156.804149 
L 625.722031 -156.545749 
L 626.432924 -156.278569 
L 627.143817 -156.002651 
L 627.854709 -155.718038 
L 628.565602 -155.424776 
L 629.276495 -155.122911 
L 629.987387 -154.81249 
L 630.69828 -154.493564 
L 631.409173 -154.166182 
L 632.120066 -153.830396 
L 632.830958 -153.486259 
L 633.541851 -153.133827 
L 634.252744 -152.773153 
L 634.963636 -152.404297 
L 635.674529 -152.027315 
L 636.385422 -151.642268 
L 637.096314 -151.249216 
L 637.807207 -150.848223 
L 638.5181 -150.43935 
L 639.228993 -150.022663 
L 639.939885 -149.598228 
L 640.650778 -149.166112 
L 641.361671 -148.726384 
L 642.072563 -148.279112 
L 642.783456 -147.824368 
L 643.494349 -147.362223 
L 644.205242 -146.892752 
L 644.916134 -146.416027 
L 645.627027 -145.932125 
L 646.33792 -145.441122 
L 647.048812 -144.943095 
L 647.759705 -144.438125 
L 648.470598 -143.926289 
L 649.181491 -143.40767 
L 649.892383 -142.88235 
L 650.603276 -142.350411 
L 651.314169 -141.811937 
L 652.025061 -141.267015 
L 652.735954 -140.71573 
L 653.446847 -140.15817 
L 654.15774 -139.594422 
L 654.868632 -139.024576 
L 655.579525 -138.448721 
L 656.290418 -137.866951 
L 657.00131 -137.279355 
L 657.712203 -136.686027 
L 658.423096 -136.087061 
L 659.133989 -135.482553 
L 659.844881 -134.872596 
L 660.555774 -134.257289 
L 661.266667 -133.636728 
L 661.977559 -133.011011 
L 662.688452 -132.380238 
L 663.399345 -131.744508 
L 664.110238 -131.103923 
L 664.82113 -130.458582 
L 665.532023 -129.808589 
L 666.242916 -129.154046 
L 666.953808 -128.495057 
L 667.664701 -127.831726 
L 668.375594 -127.164158 
L 669.086486 -126.492459 
L 669.797379 -125.816734 
L 670.508272 -125.137092 
L 671.219165 -124.453638 
L 671.930057 -123.766483 
L 672.64095 -123.075733 
L 673.351843 -122.3815 
L 674.062735 -121.683891 
L 674.773628 -120.983018 
L 675.484521 -120.278993 
L 676.195414 -119.571925 
L 676.906306 -118.861927 
L 677.617199 -118.149111 
L 678.328092 -117.433591 
L 679.038984 -116.715478 
L 679.749877 -115.994888 
L 680.46077 -115.271934 
L 681.171663 -114.54673 
L 681.882555 -113.819391 
L 682.593448 -113.090032 
L 683.304341 -112.358769 
L 684.015233 -111.625717 
L 684.726126 -110.890992 
L 685.437019 -110.154711 
L 686.147912 -109.41699 
L 686.858804 -108.677946 
L 687.569697 -107.937695 
L 688.28059 -107.196356 
L 688.991482 -106.454044 
L 689.702375 -105.710878 
L 690.413268 -104.966975 
L 691.124161 -104.222453 
L 691.835053 -103.477429 
L 692.545946 -102.732022 
L 693.256839 -101.98635 
L 693.967731 -101.24053 
L 694.678624 -100.494681 
L 695.389517 -99.74892 
L 696.10041 -99.003365 
L 696.811302 -98.258136 
L 697.522195 -97.513348 
L 698.233088 -96.769121 
L 698.94398 -96.025572 
L 699.654873 -95.282818 
L 700.365766 -94.540978 
L 701.076658 -93.800168 
L 701.787551 -93.060506 
L 702.498444 -92.322108 
L 703.209337 -91.585093 
L 703.920229 -90.849575 
L 704.631122 -90.115672 
L 705.342015 -89.3835 
L 706.052907 -88.653175 
L 706.7638 -87.924812 
L 707.474693 -87.198526 
L 708.185586 -86.474432 
L 708.896478 -85.752646 
L 709.607371 -85.03328 
L 710.318264 -84.31645 
L 711.029156 -83.602268 
L 711.740049 -82.890847 
L 712.450942 -82.1823 
L 713.161835 -81.476739 
L 713.872727 -80.774276 
L 714.58362 -80.075022 
L 715.294513 -79.379087 
L 716.005405 -78.686581 
L 716.716298 -77.997615 
L 717.427191 -77.312297 
L 718.138084 -76.630736 
L 718.848976 -75.953039 
L 719.559869 -75.279314 
L 720.270762 -74.609667 
L 720.981654 -73.944204 
L 721.692547 -73.283031 
L 722.40344 -72.626252 
L 723.114333 -71.973971 
L 723.825225 -71.326291 
L 724.536118 -70.683316 
L 725.247011 -70.045145 
L 725.957903 -69.411881 
L 726.668796 -68.783624 
L 727.379689 -68.160473 
L 728.090581 -67.542526 
L 728.801474 -66.929882 
L 729.512367 -66.322638 
L 730.22326 -65.720889 
L 730.934152 -65.12473 
L 731.645045 -64.534257 
L 732.355938 -63.949562 
L 733.06683 -63.370738 
L 733.777723 -62.797877 
L 734.488616 -62.231068 
L 735.199509 -61.670403 
L 735.910401 -61.115969 
L 736.621294 -60.567855 
L 737.332187 -60.026146 
L 738.043079 -59.49093 
L 738.753972 -58.962289 
L 739.464865 -58.440309 
L 740.175758 -57.925072 
L 740.88665 -57.416659 
L 741.597543 -56.91515 
L 742.308436 -56.420626 
L 743.019328 -55.933163 
L 743.730221 -55.45284 
L 744.441114 -54.979733 
L 745.152007 -54.513916 
L 745.862899 -54.055462 
L 746.573792 -53.604446 
L 747.284685 -53.160937 
L 747.995577 -52.725006 
L 748.70647 -52.296722 
L 749.417363 -51.876152 
L 750.128256 -51.463365 
L 750.839148 -51.058423 
L 751.550041 -50.661393 
L 752.260934 -50.272336 
L 752.971826 -49.891314 
L 753.682719 -49.518387 
L 754.393612 -49.153615 
L 755.104505 -48.797055 
L 755.815397 -48.448764 
L 756.52629 -48.108796 
L 757.237183 -47.777205 
L 757.948075 -47.454045 
L 758.658968 -47.139365 
L 759.369861 -46.833216 
L 760.080753 -46.535647 
L 760.791646 -46.246704 
L 761.502539 -45.966432 
L 762.213432 -45.694878 
L 762.924324 -45.432082 
L 763.635217 -45.178088 
L 764.34611 -44.932935 
L 765.057002 -44.696661 
L 765.767895 -44.469305 
L 766.478788 -44.250902 
L 767.189681 -44.041487 
L 767.900573 -43.841094 
L 768.611466 -43.649752 
L 769.322359 -43.467494 
L 770.033251 -43.294348 
L 770.744144 -43.13034 
L 771.455037 -42.975498 
L 772.16593 -42.829846 
L 772.876822 -42.693406 
L 773.587715 -42.5662 
L 774.298608 -42.448249 
L 775.0095 -42.339571 
L 775.720393 -42.240183 
L 776.431286 -42.150102 
L 777.142179 -42.06934 
L 777.853071 -41.997912 
L 778.563964 -41.935828 
L 779.274857 -41.883098 
L 779.985749 -41.83973 
L 780.696642 -41.805732 
L 781.407535 -41.781108 
L 782.118428 -41.765864 
L 782.82932 -41.76 
L 783.540213 -41.763518 
L 784.251106 -41.776418 
L 784.961998 -41.798697 
L 785.672891 -41.830352 
L 786.383784 -41.871378 
L 787.094676 -41.921768 
L 787.805569 -41.981514 
L 788.516462 -42.050608 
L 789.227355 -42.129037 
L 789.938247 -42.21679 
L 790.64914 -42.313853 
L 791.360033 -42.42021 
L 792.070925 -42.535844 
L 792.781818 -42.660738 
L 793.492711 -42.794871 
L 794.203604 -42.938223 
L 794.914496 -43.090769 
L 795.625389 -43.252488 
L 796.336282 -43.423352 
L 797.047174 -43.603335 
L 797.758067 -43.792408 
L 798.46896 -43.990542 
L 799.179853 -44.197705 
L 799.890745 -44.413864 
L 800.601638 -44.638985 
L 801.312531 -44.873032 
L 802.023423 -45.115969 
L 802.734316 -45.367757 
L 803.445209 -45.628356 
L 804.156102 -45.897725 
L 804.866994 -46.175821 
L 805.577887 -46.4626 
L 806.28878 -46.758018 
L 806.999672 -47.062026 
L 807.710565 -47.374578 
L 808.421458 -47.695623 
L 809.132351 -48.025111 
L 809.843243 -48.362989 
L 810.554136 -48.709205 
L 811.265029 -49.063703 
L 811.975921 -49.426428 
L 812.686814 -49.797321 
L 813.397707 -50.176325 
L 814.1086 -50.563379 
L 814.819492 -50.958422 
L 815.530385 -51.361391 
L 816.241278 -51.772223 
L 816.95217 -52.190853 
L 817.663063 -52.617215 
L 818.373956 -53.051241 
L 819.084848 -53.492862 
L 819.795741 -53.942008 
L 820.506634 -54.398609 
L 821.217527 -54.862592 
L 821.928419 -55.333884 
L 822.639312 -55.81241 
L 823.350205 -56.298095 
L 824.061097 -56.790861 
L 824.77199 -57.290631 
L 825.482883 -57.797326 
L 826.193776 -58.310865 
L 826.904668 -58.831167 
L 827.615561 -59.35815 
L 828.326454 -59.89173 
L 829.037346 -60.431824 
L 829.748239 -60.978345 
L 830.459132 -61.531207 
L 831.170025 -62.090323 
L 831.880917 -62.655603 
L 832.59181 -63.22696 
L 833.302703 -63.804302 
L 834.013595 -64.387538 
L 834.724488 -64.976575 
L 835.435381 -65.571321 
L 836.146274 -66.171682 
L 836.857166 -66.777561 
L 837.568059 -67.388865 
L 838.278952 -68.005495 
L 838.989844 -68.627354 
L 839.700737 -69.254344 
L 840.41163 -69.886365 
L 841.122523 -70.523319 
L 841.833415 -71.165103 
L 842.544308 -71.811616 
L 843.255201 -72.462756 
L 843.966093 -73.11842 
L 844.676986 -73.778505 
L 845.387879 -74.442905 
L 846.098771 -75.111516 
L 846.809664 -75.784231 
L 847.520557 -76.460945 
L 848.23145 -77.141551 
L 848.942342 -77.82594 
L 849.653235 -78.514004 
L 850.364128 -79.205635 
L 851.07502 -79.900722 
L 851.785913 -80.599157 
L 852.496806 -81.300829 
L 853.207699 -82.005625 
L 853.918591 -82.713436 
L 854.629484 -83.424149 
L 855.340377 -84.137652 
L 856.051269 -84.853831 
L 856.762162 -85.572573 
L 857.473055 -86.293765 
L 858.183948 -87.017293 
L 858.89484 -87.743041 
L 859.605733 -88.470896 
L 860.316626 -89.200741 
L 861.027518 -89.932463 
L 861.738411 -90.665944 
L 862.449304 -91.401068 
L 863.160197 -92.13772 
L 863.871089 -92.875783 
L 864.581982 -93.61514 
L 865.292875 -94.355674 
L 866.003767 -95.097268 
L 866.71466 -95.839804 
L 867.425553 -96.583165 
L 868.136446 -97.327234 
L 868.847338 -98.071893 
L 869.558231 -98.817023 
L 870.269124 -99.562507 
L 870.980016 -100.308228 
L 871.690909 -101.054066 
L 871.690909 -243.36 
L 871.690909 -243.36 
L 870.980016 -243.36 
L 870.269124 -243.36 
L 869.558231 -243.36 
L 868.847338 -243.36 
L 868.136446 -243.36 
L 867.425553 -243.36 
L 866.71466 -243.36 
L 866.003767 -243.36 
L 865.292875 -243.36 
L 864.581982 -243.36 
L 863.871089 -243.36 
L 863.160197 -243.36 
L 862.449304 -243.36 
L 861.738411 -243.36 
L 861.027518 -243.36 
L 860.316626 -243.36 
L 859.605733 -243.36 
L 858.89484 -243.36 
L 858.183948 -243.36 
L 857.473055 -243.36 
L 856.762162 -243.36 
L 856.051269 -243.36 
L 855.340377 -243.36 
L 854.629484 -243.36 
L 853.918591 -243.36 
L 853.207699 -243.36 
L 852.496806 -243.36 
L 851.785913 -243.36 
L 851.07502 -243.36 
L 850.364128 -243.36 
L 849.653235 -243.36 
L 848.942342 -243.36 
L 848.23145 -243.36 
L 847.520557 -243.36 
L 846.809664 -243.36 
L 846.098771 -243.36 
L 845.387879 -243.36 
L 844.676986 -243.36 
L 843.966093 -243.36 
L 843.255201 -243.36 
L 842.544308 -243.36 
L 841.833415 -243.36 
L 841.122523 -243.36 
L 840.41163 -243.36 
L 839.700737 -243.36 
L 838.989844 -243.36 
L 838.278952 -243.36 
L 837.568059 -243.36 
L 836.857166 -243.36 
L 836.146274 -243.36 
L 835.435381 -243.36 
L 834.724488 -243.36 
L 834.013595 -243.36 
L 833.302703 -243.36 
L 832.59181 -243.36 
L 831.880917 -243.36 
L 831.170025 -243.36 
L 830.459132 -243.36 
L 829.748239 -243.36 
L 829.037346 -243.36 
L 828.326454 -243.36 
L 827.615561 -243.36 
L 826.904668 -243.36 
L 826.193776 -243.36 
L 825.482883 -243.36 
L 824.77199 -243.36 
L 824.061097 -243.36 
L 823.350205 -243.36 
L 822.639312 -243.36 
L 821.928419 -243.36 
L 821.217527 -243.36 
L 820.506634 -243.36 
L 819.795741 -243.36 
L 819.084848 -243.36 
L 818.373956 -243.36 
L 817.663063 -243.36 
L 816.95217 -243.36 
L 816.241278 -243.36 
L 815.530385 -243.36 
L 814.819492 -243.36 
L 814.1086 -243.36 
L 813.397707 -243.36 
L 812.686814 -243.36 
L 811.975921 -243.36 
L 811.265029 -243.36 
L 810.554136 -243.36 
L 809.843243 -243.36 
L 809.132351 -243.36 
L 808.421458 -243.36 
L 807.710565 -243.36 
L 806.999672 -243.36 
L 806.28878 -243.36 
L 805.577887 -243.36 
L 804.866994 -243.36 
L 804.156102 -243.36 
L 803.445209 -243.36 
L 802.734316 -243.36 
L 802.023423 -243.36 
L 801.312531 -243.36 
L 800.601638 -243.36 
L 799.890745 -243.36 
L 799.179853 -243.36 
L 798.46896 -243.36 
L 797.758067 -243.36 
L 797.047174 -243.36 
L 796.336282 -243.36 
L 795.625389 -243.36 
L 794.914496 -243.36 
L 794.203604 -243.36 
L 793.492711 -243.36 
L 792.781818 -243.36 
L 792.070925 -243.36 
L 791.360033 -243.36 
L 790.64914 -243.36 
L 789.938247 -243.36 
L 789.227355 -243.36 
L 788.516462 -243.36 
L 787.805569 -243.36 
L 787.094676 -243.36 
L 786.383784 -243.36 
L 785.672891 -243.36 
L 784.961998 -243.36 
L 784.251106 -243.36 
L 783.540213 -243.36 
L 782.82932 -243.36 
L 782.118428 -243.36 
L 781.407535 -243.36 
L 780.696642 -243.36 
L 779.985749 -243.36 
L 779.274857 -243.36 
L 778.563964 -243.36 
L 777.853071 -243.36 
L 777.142179 -243.36 
L 776.431286 -243.36 
L 775.720393 -243.36 
L 775.0095 -243.36 
L 774.298608 -243.36 
L 773.587715 -243.36 
L 772.876822 -243.36 
L 772.16593 -243.36 
L 771.455037 -243.36 
L 770.744144 -243.36 
L 770.033251 -243.36 
L 769.322359 -243.36 
L 768.611466 -243.36 
L 767.900573 -243.36 
L 767.189681 -243.36 
L 766.478788 -243.36 
L 765.767895 -243.36 
L 765.057002 -243.36 
L 764.34611 -243.36 
L 763.635217 -243.36 
L 762.924324 -243.36 
L 762.213432 -243.36 
L 761.502539 -243.36 
L 760.791646 -243.36 
L 760.080753 -243.36 
L 759.369861 -243.36 
L 758.658968 -243.36 
L 757.948075 -243.36 
L 757.237183 -243.36 
L 756.52629 -243.36 
L 755.815397 -243.36 
L 755.104505 -243.36 
L 754.393612 -243.36 
L 753.682719 -243.36 
L 752.971826 -243.36 
L 752.260934 -243.36 
L 751.550041 -243.36 
L 750.839148 -243.36 
L 750.128256 -243.36 
L 749.417363 -243.36 
L 748.70647 -243.36 
L 747.995577 -243.36 
L 747.284685 -243.36 
L 746.573792 -243.36 
L 745.862899 -243.36 
L 745.152007 -243.36 
L 744.441114 -243.36 
L 743.730221 -243.36 
L 743.019328 -243.36 
L 742.308436 -243.36 
L 741.597543 -243.36 
L 740.88665 -243.36 
L 740.175758 -243.36 
L 739.464865 -243.36 
L 738.753972 -243.36 
L 738.043079 -243.36 
L 737.332187 -243.36 
L 736.621294 -243.36 
L 735.910401 -243.36 
L 735.199509 -243.36 
L 734.488616 -243.36 
L 733.777723 -243.36 
L 733.06683 -243.36 
L 732.355938 -243.36 
L 731.645045 -243.36 
L 730.934152 -243.36 
L 730.22326 -243.36 
L 729.512367 -243.36 
L 728.801474 -243.36 
L 728.090581 -243.36 
L 727.379689 -243.36 
L 726.668796 -243.36 
L 725.957903 -243.36 
L 725.247011 -243.36 
L 724.536118 -243.36 
L 723.825225 -243.36 
L 723.114333 -243.36 
L 722.40344 -243.36 
L 721.692547 -243.36 
L 720.981654 -243.36 
L 720.270762 -243.36 
L 719.559869 -243.36 
L 718.848976 -243.36 
L 718.138084 -243.36 
L 717.427191 -243.36 
L 716.716298 -243.36 
L 716.005405 -243.36 
L 715.294513 -243.36 
L 714.58362 -243.36 
L 713.872727 -243.36 
L 713.161835 -243.36 
L 712.450942 -243.36 
L 711.740049 -243.36 
L 711.029156 -243.36 
L 710.318264 -243.36 
L 709.607371 -243.36 
L 708.896478 -243.36 
L 708.185586 -243.36 
L 707.474693 -243.36 
L 706.7638 -243.36 
L 706.052907 -243.36 
L 705.342015 -243.36 
L 704.631122 -243.36 
L 703.920229 -243.36 
L 703.209337 -243.36 
L 702.498444 -243.36 
L 701.787551 -243.36 
L 701.076658 -243.36 
L 700.365766 -243.36 
L 699.654873 -243.36 
L 698.94398 -243.36 
L 698.233088 -243.36 
L 697.522195 -243.36 
L 696.811302 -243.36 
L 696.10041 -243.36 
L 695.389517 -243.36 
L 694.678624 -243.36 
L 693.967731 -243.36 
L 693.256839 -243.36 
L 692.545946 -243.36 
L 691.835053 -243.36 
L 691.124161 -243.36 
L 690.413268 -243.36 
L 689.702375 -243.36 
L 688.991482 -243.36 
L 688.28059 -243.36 
L 687.569697 -243.36 
L 686.858804 -243.36 
L 686.147912 -243.36 
L 685.437019 -243.36 
L 684.726126 -243.36 
L 684.015233 -243.36 
L 683.304341 -243.36 
L 682.593448 -243.36 
L 681.882555 -243.36 
L 681.171663 -243.36 
L 680.46077 -243.36 
L 679.749877 -243.36 
L 679.038984 -243.36 
L 678.328092 -243.36 
L 677.617199 -243.36 
L 676.906306 -243.36 
L 676.195414 -243.36 
L 675.484521 -243.36 
L 674.773628 -243.36 
L 674.062735 -243.36 
L 673.351843 -243.36 
L 672.64095 -243.36 
L 671.930057 -243.36 
L 671.219165 -243.36 
L 670.508272 -243.36 
L 669.797379 -243.36 
L 669.086486 -243.36 
L 668.375594 -243.36 
L 667.664701 -243.36 
L 666.953808 -243.36 
L 666.242916 -243.36 
L 665.532023 -243.36 
L 664.82113 -243.36 
L 664.110238 -243.36 
L 663.399345 -243.36 
L 662.688452 -243.36 
L 661.977559 -243.36 
L 661.266667 -243.36 
L 660.555774 -243.36 
L 659.844881 -243.36 
L 659.133989 -243.36 
L 658.423096 -243.36 
L 657.712203 -243.36 
L 657.00131 -243.36 
L 656.290418 -243.36 
L 655.579525 -243.36 
L 654.868632 -243.36 
L 654.15774 -243.36 
L 653.446847 -243.36 
L 652.735954 -243.36 
L 652.025061 -243.36 
L 651.314169 -243.36 
L 650.603276 -243.36 
L 649.892383 -243.36 
L 649.181491 -243.36 
L 648.470598 -243.36 
L 647.759705 -243.36 
L 647.048812 -243.36 
L 646.33792 -243.36 
L 645.627027 -243.36 
L 644.916134 -243.36 
L 644.205242 -243.36 
L 643.494349 -243.36 
L 642.783456 -243.36 
L 642.072563 -243.36 
L 641.361671 -243.36 
L 640.650778 -243.36 
L 639.939885 -243.36 
L 639.228993 -243.36 
L 638.5181 -243.36 
L 637.807207 -243.36 
L 637.096314 -243.36 
L 636.385422 -243.36 
L 635.674529 -243.36 
L 634.963636 -243.36 
L 634.252744 -243.36 
L 633.541851 -243.36 
L 632.830958 -243.36 
L 632.120066 -243.36 
L 631.409173 -243.36 
L 630.69828 -243.36 
L 629.987387 -243.36 
L 629.276495 -243.36 
L 628.565602 -243.36 
L 627.854709 -243.36 
L 627.143817 -243.36 
L 626.432924 -243.36 
L 625.722031 -243.36 
L 625.011138 -243.36 
L 624.300246 -243.36 
L 623.589353 -243.36 
L 622.87846 -243.36 
L 622.167568 -243.36 
L 621.456675 -243.36 
L 620.745782 -243.36 
L 620.034889 -243.36 
L 619.323997 -243.36 
L 618.613104 -243.36 
L 617.902211 -243.36 
L 617.191319 -243.36 
L 616.480426 -243.36 
L 615.769533 -243.36 
L 615.05864 -243.36 
L 614.347748 -243.36 
L 613.636855 -243.36 
L 612.925962 -243.36 
L 612.21507 -243.36 
L 611.504177 -243.36 
L 610.793284 -243.36 
L 610.082391 -243.36 
L 609.371499 -243.36 
L 608.660606 -243.36 
L 607.949713 -243.36 
L 607.238821 -243.36 
L 606.527928 -243.36 
L 605.817035 -243.36 
L 605.106143 -243.36 
L 604.39525 -243.36 
L 603.684357 -243.36 
L 602.973464 -243.36 
L 602.262572 -243.36 
L 601.551679 -243.36 
L 600.840786 -243.36 
L 600.129894 -243.36 
L 599.419001 -243.36 
L 598.708108 -243.36 
L 597.997215 -243.36 
L 597.286323 -243.36 
L 596.57543 -243.36 
L 595.864537 -243.36 
L 595.153645 -243.36 
L 594.442752 -243.36 
L 593.731859 -243.36 
L 593.020966 -243.36 
L 592.310074 -243.36 
L 591.599181 -243.36 
L 590.888288 -243.36 
L 590.177396 -243.36 
L 589.466503 -243.36 
L 588.75561 -243.36 
L 588.044717 -243.36 
L 587.333825 -243.36 
L 586.622932 -243.36 
L 585.912039 -243.36 
L 585.201147 -243.36 
L 584.490254 -243.36 
L 583.779361 -243.36 
L 583.068468 -243.36 
L 582.357576 -243.36 
L 581.646683 -243.36 
L 580.93579 -243.36 
L 580.224898 -243.36 
L 579.514005 -243.36 
L 578.803112 -243.36 
L 578.092219 -243.36 
L 577.381327 -243.36 
L 576.670434 -243.36 
L 575.959541 -243.36 
L 575.248649 -243.36 
L 574.537756 -243.36 
L 573.826863 -243.36 
L 573.115971 -243.36 
L 572.405078 -243.36 
L 571.694185 -243.36 
L 570.983292 -243.36 
L 570.2724 -243.36 
L 569.561507 -243.36 
L 568.850614 -243.36 
L 568.139722 -243.36 
L 567.428829 -243.36 
L 566.717936 -243.36 
L 566.007043 -243.36 
L 565.296151 -243.36 
L 564.585258 -243.36 
L 563.874365 -243.36 
L 563.163473 -243.36 
L 562.45258 -243.36 
L 561.741687 -243.36 
L 561.030794 -243.36 
L 560.319902 -243.36 
L 559.609009 -243.36 
L 558.898116 -243.36 
L 558.187224 -243.36 
L 557.476331 -243.36 
L 556.765438 -243.36 
L 556.054545 -243.36 
L 555.343653 -243.36 
L 554.63276 -243.36 
L 553.921867 -243.36 
L 553.210975 -243.36 
L 552.500082 -243.36 
L 551.789189 -243.36 
L 551.078296 -243.36 
L 550.367404 -243.36 
L 549.656511 -243.36 
L 548.945618 -243.36 
L 548.234726 -243.36 
L 547.523833 -243.36 
L 546.81294 -243.36 
L 546.102048 -243.36 
L 545.391155 -243.36 
L 544.680262 -243.36 
L 543.969369 -243.36 
L 543.258477 -243.36 
L 542.547584 -243.36 
L 541.836691 -243.36 
L 541.125799 -243.36 
L 540.414906 -243.36 
L 539.704013 -243.36 
L 538.99312 -243.36 
L 538.282228 -243.36 
L 537.571335 -243.36 
L 536.860442 -243.36 
L 536.14955 -243.36 
L 535.438657 -243.36 
L 534.727764 -243.36 
L 534.016871 -243.36 
L 533.305979 -243.36 
L 532.595086 -243.36 
L 531.884193 -243.36 
L 531.173301 -243.36 
L 530.462408 -243.36 
L 529.751515 -243.36 
L 529.040622 -243.36 
L 528.32973 -243.36 
L 527.618837 -243.36 
L 526.907944 -243.36 
L 526.197052 -243.36 
L 525.486159 -243.36 
L 524.775266 -243.36 
L 524.064373 -243.36 
L 523.353481 -243.36 
L 522.642588 -243.36 
L 521.931695 -243.36 
L 521.220803 -243.36 
L 520.50991 -243.36 
L 519.799017 -243.36 
L 519.088124 -243.36 
L 518.377232 -243.36 
L 517.666339 -243.36 
L 516.955446 -243.36 
L 516.244554 -243.36 
L 515.533661 -243.36 
L 514.822768 -243.36 
L 514.111876 -243.36 
L 513.400983 -243.36 
L 512.69009 -243.36 
L 511.979197 -243.36 
L 511.268305 -243.36 
L 510.557412 -243.36 
L 509.846519 -243.36 
L 509.135627 -243.36 
L 508.424734 -243.36 
L 507.713841 -243.36 
L 507.002948 -243.36 
L 506.292056 -243.36 
L 505.581163 -243.36 
L 504.87027 -243.36 
L 504.159378 -243.36 
L 503.448485 -243.36 
L 502.737592 -243.36 
L 502.026699 -243.36 
L 501.315807 -243.36 
L 500.604914 -243.36 
L 499.894021 -243.36 
L 499.183129 -243.36 
L 498.472236 -243.36 
L 497.761343 -243.36 
L 497.05045 -243.36 
L 496.339558 -243.36 
L 495.628665 -243.36 
L 494.917772 -243.36 
L 494.20688 -243.36 
L 493.495987 -243.36 
L 492.785094 -243.36 
L 492.074201 -243.36 
L 491.363309 -243.36 
L 490.652416 -243.36 
L 489.941523 -243.36 
L 489.230631 -243.36 
L 488.519738 -243.36 
L 487.808845 -243.36 
L 487.097952 -243.36 
L 486.38706 -243.36 
L 485.676167 -243.36 
L 484.965274 -243.36 
L 484.254382 -243.36 
L 483.543489 -243.36 
L 482.832596 -243.36 
L 482.121704 -243.36 
L 481.410811 -243.36 
L 480.699918 -243.36 
L 479.989025 -243.36 
L 479.278133 -243.36 
L 478.56724 -243.36 
L 477.856347 -243.36 
L 477.145455 -243.36 
L 476.434562 -243.36 
L 475.723669 -243.36 
L 475.012776 -243.36 
L 474.301884 -243.36 
L 473.590991 -243.36 
L 472.880098 -243.36 
L 472.169206 -243.36 
L 471.458313 -243.36 
L 470.74742 -243.36 
L 470.036527 -243.36 
L 469.325635 -243.36 
L 468.614742 -243.36 
L 467.903849 -243.36 
L 467.192957 -243.36 
L 466.482064 -243.36 
L 465.771171 -243.36 
L 465.060278 -243.36 
L 464.349386 -243.36 
L 463.638493 -243.36 
L 462.9276 -243.36 
L 462.216708 -243.36 
L 461.505815 -243.36 
L 460.794922 -243.36 
L 460.084029 -243.36 
L 459.373137 -243.36 
L 458.662244 -243.36 
L 457.951351 -243.36 
L 457.240459 -243.36 
L 456.529566 -243.36 
L 455.818673 -243.36 
L 455.107781 -243.36 
L 454.396888 -243.36 
L 453.685995 -243.36 
L 452.975102 -243.36 
L 452.26421 -243.36 
L 451.553317 -243.36 
L 450.842424 -243.36 
L 450.131532 -243.36 
L 449.420639 -243.36 
L 448.709746 -243.36 
L 447.998853 -243.36 
L 447.287961 -243.36 
L 446.577068 -243.36 
L 445.866175 -243.36 
L 445.155283 -243.36 
L 444.44439 -243.36 
L 443.733497 -243.36 
L 443.022604 -243.36 
L 442.311712 -243.36 
L 441.600819 -243.36 
L 440.889926 -243.36 
L 440.179034 -243.36 
L 439.468141 -243.36 
L 438.757248 -243.36 
L 438.046355 -243.36 
L 437.335463 -243.36 
L 436.62457 -243.36 
L 435.913677 -243.36 
L 435.202785 -243.36 
L 434.491892 -243.36 
L 433.780999 -243.36 
L 433.070106 -243.36 
L 432.359214 -243.36 
L 431.648321 -243.36 
L 430.937428 -243.36 
L 430.226536 -243.36 
L 429.515643 -243.36 
L 428.80475 -243.36 
L 428.093857 -243.36 
L 427.382965 -243.36 
L 426.672072 -243.36 
L 425.961179 -243.36 
L 425.250287 -243.36 
L 424.539394 -243.36 
L 423.828501 -243.36 
L 423.117609 -243.36 
L 422.406716 -243.36 
L 421.695823 -243.36 
L 420.98493 -243.36 
L 420.274038 -243.36 
L 419.563145 -243.36 
L 418.852252 -243.36 
L 418.14136 -243.36 
L 417.430467 -243.36 
L 416.719574 -243.36 
L 416.008681 -243.36 
L 415.297789 -243.36 
L 414.586896 -243.36 
L 413.876003 -243.36 
L 413.165111 -243.36 
L 412.454218 -243.36 
L 411.743325 -243.36 
L 411.032432 -243.36 
L 410.32154 -243.36 
L 409.610647 -243.36 
L 408.899754 -243.36 
L 408.188862 -243.36 
L 407.477969 -243.36 
L 406.767076 -243.36 
L 406.056183 -243.36 
L 405.345291 -243.36 
L 404.634398 -243.36 
L 403.923505 -243.36 
L 403.212613 -243.36 
L 402.50172 -243.36 
L 401.790827 -243.36 
L 401.079934 -243.36 
L 400.369042 -243.36 
L 399.658149 -243.36 
L 398.947256 -243.36 
L 398.236364 -243.36 
L 397.525471 -243.36 
L 396.814578 -243.36 
L 396.103686 -243.36 
L 395.392793 -243.36 
L 394.6819 -243.36 
L 393.971007 -243.36 
L 393.260115 -243.36 
L 392.549222 -243.36 
L 391.838329 -243.36 
L 391.127437 -243.36 
L 390.416544 -243.36 
L 389.705651 -243.36 
L 388.994758 -243.36 
L 388.283866 -243.36 
L 387.572973 -243.36 
L 386.86208 -243.36 
L 386.151188 -243.36 
L 385.440295 -243.36 
L 384.729402 -243.36 
L 384.018509 -243.36 
L 383.307617 -243.36 
L 382.596724 -243.36 
L 381.885831 -243.36 
L 381.174939 -243.36 
L 380.464046 -243.36 
L 379.753153 -243.36 
L 379.04226 -243.36 
L 378.331368 -243.36 
L 377.620475 -243.36 
L 376.909582 -243.36 
L 376.19869 -243.36 
L 375.487797 -243.36 
L 374.776904 -243.36 
L 374.066011 -243.36 
L 373.355119 -243.36 
L 372.644226 -243.36 
L 371.933333 -243.36 
L 371.222441 -243.36 
L 370.511548 -243.36 
L 369.800655 -243.36 
L 369.089762 -243.36 
L 368.37887 -243.36 
L 367.667977 -243.36 
L 366.957084 -243.36 
L 366.246192 -243.36 
L 365.535299 -243.36 
L 364.824406 -243.36 
L 364.113514 -243.36 
L 363.402621 -243.36 
L 362.691728 -243.36 
L 361.980835 -243.36 
L 361.269943 -243.36 
L 360.55905 -243.36 
L 359.848157 -243.36 
L 359.137265 -243.36 
L 358.426372 -243.36 
L 357.715479 -243.36 
L 357.004586 -243.36 
L 356.293694 -243.36 
L 355.582801 -243.36 
L 354.871908 -243.36 
L 354.161016 -243.36 
L 353.450123 -243.36 
L 352.73923 -243.36 
L 352.028337 -243.36 
L 351.317445 -243.36 
L 350.606552 -243.36 
L 349.895659 -243.36 
L 349.184767 -243.36 
L 348.473874 -243.36 
L 347.762981 -243.36 
L 347.052088 -243.36 
L 346.341196 -243.36 
L 345.630303 -243.36 
L 344.91941 -243.36 
L 344.208518 -243.36 
L 343.497625 -243.36 
L 342.786732 -243.36 
L 342.075839 -243.36 
L 341.364947 -243.36 
L 340.654054 -243.36 
L 339.943161 -243.36 
L 339.232269 -243.36 
L 338.521376 -243.36 
L 337.810483 -243.36 
L 337.09959 -243.36 
L 336.388698 -243.36 
L 335.677805 -243.36 
L 334.966912 -243.36 
L 334.25602 -243.36 
L 333.545127 -243.36 
L 332.834234 -243.36 
L 332.123342 -243.36 
L 331.412449 -243.36 
L 330.701556 -243.36 
L 329.990663 -243.36 
L 329.279771 -243.36 
L 328.568878 -243.36 
L 327.857985 -243.36 
L 327.147093 -243.36 
L 326.4362 -243.36 
L 325.725307 -243.36 
L 325.014414 -243.36 
L 324.303522 -243.36 
L 323.592629 -243.36 
L 322.881736 -243.36 
L 322.170844 -243.36 
L 321.459951 -243.36 
L 320.749058 -243.36 
L 320.038165 -243.36 
L 319.327273 -243.36 
L 318.61638 -243.36 
L 317.905487 -243.36 
L 317.194595 -243.36 
L 316.483702 -243.36 
L 315.772809 -243.36 
L 315.061916 -243.36 
L 314.351024 -243.36 
L 313.640131 -243.36 
L 312.929238 -243.36 
L 312.218346 -243.36 
L 311.507453 -243.36 
L 310.79656 -243.36 
L 310.085667 -243.36 
L 309.374775 -243.36 
L 308.663882 -243.36 
L 307.952989 -243.36 
L 307.242097 -243.36 
L 306.531204 -243.36 
L 305.820311 -243.36 
L 305.109419 -243.36 
L 304.398526 -243.36 
L 303.687633 -243.36 
L 302.97674 -243.36 
L 302.265848 -243.36 
L 301.554955 -243.36 
L 300.844062 -243.36 
L 300.13317 -243.36 
L 299.422277 -243.36 
L 298.711384 -243.36 
L 298.000491 -243.36 
L 297.289599 -243.36 
L 296.578706 -243.36 
L 295.867813 -243.36 
L 295.156921 -243.36 
L 294.446028 -243.36 
L 293.735135 -243.36 
L 293.024242 -243.36 
L 292.31335 -243.36 
L 291.602457 -243.36 
L 290.891564 -243.36 
L 290.180672 -243.36 
L 289.469779 -243.36 
L 288.758886 -243.36 
L 288.047993 -243.36 
L 287.337101 -243.36 
L 286.626208 -243.36 
L 285.915315 -243.36 
L 285.204423 -243.36 
L 284.49353 -243.36 
L 283.782637 -243.36 
L 283.071744 -243.36 
L 282.360852 -243.36 
L 281.649959 -243.36 
L 280.939066 -243.36 
L 280.228174 -243.36 
L 279.517281 -243.36 
L 278.806388 -243.36 
L 278.095495 -243.36 
L 277.384603 -243.36 
L 276.67371 -243.36 
L 275.962817 -243.36 
L 275.251925 -243.36 
L 274.541032 -243.36 
L 273.830139 -243.36 
L 273.119247 -243.36 
L 272.408354 -243.36 
L 271.697461 -243.36 
L 270.986568 -243.36 
L 270.275676 -243.36 
L 269.564783 -243.36 
L 268.85389 -243.36 
L 268.142998 -243.36 
L 267.432105 -243.36 
L 266.721212 -243.36 
L 266.010319 -243.36 
L 265.299427 -243.36 
L 264.588534 -243.36 
L 263.877641 -243.36 
L 263.166749 -243.36 
L 262.455856 -243.36 
L 261.744963 -243.36 
L 261.03407 -243.36 
L 260.323178 -243.36 
L 259.612285 -243.36 
L 258.901392 -243.36 
L 258.1905 -243.36 
L 257.479607 -243.36 
L 256.768714 -243.36 
L 256.057821 -243.36 
L 255.346929 -243.36 
L 254.636036 -243.36 
L 253.925143 -243.36 
L 253.214251 -243.36 
L 252.503358 -243.36 
L 251.792465 -243.36 
L 251.081572 -243.36 
L 250.37068 -243.36 
L 249.659787 -243.36 
L 248.948894 -243.36 
L 248.238002 -243.36 
L 247.527109 -243.36 
L 246.816216 -243.36 
L 246.105324 -243.36 
L 245.394431 -243.36 
L 244.683538 -243.36 
L 243.972645 -243.36 
L 243.261753 -243.36 
L 242.55086 -243.36 
L 241.839967 -243.36 
L 241.129075 -243.36 
L 240.418182 -243.36 
L 239.707289 -243.36 
L 238.996396 -243.36 
L 238.285504 -243.36 
L 237.574611 -243.36 
L 236.863718 -243.36 
L 236.152826 -243.36 
L 235.441933 -243.36 
L 234.73104 -243.36 
L 234.020147 -243.36 
L 233.309255 -243.36 
L 232.598362 -243.36 
L 231.887469 -243.36 
L 231.176577 -243.36 
L 230.465684 -243.36 
L 229.754791 -243.36 
L 229.043898 -243.36 
L 228.333006 -243.36 
L 227.622113 -243.36 
L 226.91122 -243.36 
L 226.200328 -243.36 
L 225.489435 -243.36 
L 224.778542 -243.36 
L 224.067649 -243.36 
L 223.356757 -243.36 
L 222.645864 -243.36 
L 221.934971 -243.36 
L 221.224079 -243.36 
L 220.513186 -243.36 
L 219.802293 -243.36 
L 219.0914 -243.36 
L 218.380508 -243.36 
L 217.669615 -243.36 
L 216.958722 -243.36 
L 216.24783 -243.36 
L 215.536937 -243.36 
L 214.826044 -243.36 
L 214.115152 -243.36 
L 213.404259 -243.36 
L 212.693366 -243.36 
L 211.982473 -243.36 
L 211.271581 -243.36 
L 210.560688 -243.36 
L 209.849795 -243.36 
L 209.138903 -243.36 
L 208.42801 -243.36 
L 207.717117 -243.36 
L 207.006224 -243.36 
L 206.295332 -243.36 
L 205.584439 -243.36 
L 204.873546 -243.36 
L 204.162654 -243.36 
L 203.451761 -243.36 
L 202.740868 -243.36 
L 202.029975 -243.36 
L 201.319083 -243.36 
L 200.60819 -243.36 
L 199.897297 -243.36 
L 199.186405 -243.36 
L 198.475512 -243.36 
L 197.764619 -243.36 
L 197.053726 -243.36 
L 196.342834 -243.36 
L 195.631941 -243.36 
L 194.921048 -243.36 
L 194.210156 -243.36 
L 193.499263 -243.36 
L 192.78837 -243.36 
L 192.077477 -243.36 
L 191.366585 -243.36 
L 190.655692 -243.36 
L 189.944799 -243.36 
L 189.233907 -243.36 
L 188.523014 -243.36 
L 187.812121 -243.36 
L 187.101229 -243.36 
L 186.390336 -243.36 
L 185.679443 -243.36 
L 184.96855 -243.36 
L 184.257658 -243.36 
L 183.546765 -243.36 
L 182.835872 -243.36 
L 182.12498 -243.36 
L 181.414087 -243.36 
L 180.703194 -243.36 
L 179.992301 -243.36 
L 179.281409 -243.36 
L 178.570516 -243.36 
L 177.859623 -243.36 
L 177.148731 -243.36 
L 176.437838 -243.36 
L 175.726945 -243.36 
L 175.016052 -243.36 
L 174.30516 -243.36 
L 173.594267 -243.36 
L 172.883374 -243.36 
L 172.172482 -243.36 
L 171.461589 -243.36 
L 170.750696 -243.36 
L 170.039803 -243.36 
L 169.328911 -243.36 
L 168.618018 -243.36 
L 167.907125 -243.36 
L 167.196233 -243.36 
L 166.48534 -243.36 
L 165.774447 -243.36 
L 165.063554 -243.36 
L 164.352662 -243.36 
L 163.641769 -243.36 
L 162.930876 -243.36 
L 162.219984 -243.36 
L 161.509091 -243.36 
z
" style="stroke: #ffffff"/>
    </defs>
    <g clip-path="url(#p60c9f9bf4d)">
     <use xlink:href="#m999f120ba1" x="0" y="288" style="fill: #ffffff; stroke: #ffffff"/>
    </g>
   </g>
   <g id="line2d_1">
    <path d="M 161.509091 186.945934 
L 175.726945 172.185633 
L 183.546765 164.405872 
L 189.944799 158.354624 
L 195.631941 153.280733 
L 200.60819 149.118828 
L 205.584439 145.250018 
L 209.849795 142.189963 
L 214.115152 139.38473 
L 218.380508 136.85029 
L 222.645864 134.601073 
L 226.200328 132.953894 
L 229.754791 131.520224 
L 233.309255 130.305732 
L 236.863718 129.31522 
L 240.418182 128.552606 
L 243.972645 128.020905 
L 247.527109 127.72222 
L 251.081572 127.657732 
L 254.636036 127.827696 
L 258.1905 128.231439 
L 261.744963 128.867366 
L 265.299427 129.732962 
L 268.85389 130.824803 
L 272.408354 132.138572 
L 275.962817 133.669073 
L 279.517281 135.410256 
L 283.782637 137.768021 
L 288.047993 140.405784 
L 292.31335 143.308527 
L 296.578706 146.459723 
L 301.554955 150.426125 
L 306.531204 154.675492 
L 312.218346 159.836072 
L 318.61638 165.96689 
L 325.725307 173.090394 
L 335.677805 183.405216 
L 353.450123 201.886756 
L 361.269943 209.658351 
L 367.667977 215.700457 
L 373.355119 220.764464 
L 378.331368 224.916444 
L 383.307617 228.774218 
L 387.572973 231.823993 
L 391.838329 234.618252 
L 396.103686 237.141085 
L 400.369042 239.378128 
L 403.923505 241.014779 
L 407.477969 242.437618 
L 411.032432 243.641018 
L 414.586896 244.62022 
L 418.14136 245.371353 
L 421.695823 245.891445 
L 425.250287 246.178441 
L 428.80475 246.231204 
L 432.359214 246.049528 
L 435.913677 245.63413 
L 439.468141 244.986652 
L 443.022604 244.109655 
L 446.577068 243.006608 
L 450.131532 241.681872 
L 453.685995 240.140685 
L 457.240459 238.389143 
L 461.505815 236.019432 
L 465.771171 233.370318 
L 470.036527 230.456882 
L 474.301884 227.295714 
L 479.278133 223.318663 
L 484.254382 219.059786 
L 489.941523 213.889828 
L 496.339558 207.750472 
L 503.448485 200.620104 
L 513.400983 190.300503 
L 531.173301 171.824738 
L 538.99312 164.061387 
L 545.391155 158.028482 
L 551.078296 152.974409 
L 556.054545 148.832396 
L 561.030794 144.985697 
L 565.296151 141.946231 
L 569.561507 139.162974 
L 573.826863 136.651774 
L 578.092219 134.426927 
L 581.646683 132.800819 
L 585.201147 131.388826 
L 588.75561 130.19653 
L 592.310074 129.228647 
L 595.864537 128.489003 
L 599.419001 127.980524 
L 602.973464 127.705221 
L 606.527928 127.664182 
L 610.082391 127.857569 
L 613.636855 128.284618 
L 617.191319 128.94364 
L 620.745782 129.832029 
L 624.300246 130.946272 
L 627.854709 132.281962 
L 631.409173 133.833818 
L 634.963636 135.595703 
L 639.228993 137.977337 
L 643.494349 140.637777 
L 647.759705 143.561875 
L 652.025061 146.732985 
L 657.00131 150.720645 
L 661.977559 154.988989 
L 667.664701 160.168274 
L 674.062735 166.316109 
L 681.882555 174.180609 
L 692.545946 185.267978 
L 708.185586 201.525568 
L 716.005405 209.313419 
L 722.40344 215.373748 
L 728.090581 220.457474 
L 733.06683 224.629262 
L 738.043079 228.50907 
L 742.308436 231.579374 
L 746.573792 234.395554 
L 750.839148 236.941577 
L 755.104505 239.202945 
L 758.658968 240.860635 
L 762.213432 242.305122 
L 765.767895 243.530695 
L 769.322359 244.532506 
L 772.876822 245.306594 
L 776.431286 245.849898 
L 779.985749 246.16027 
L 783.540213 246.236482 
L 787.094676 246.078232 
L 790.64914 245.686147 
L 794.203604 245.061777 
L 797.758067 244.207592 
L 801.312531 243.126968 
L 804.866994 241.824179 
L 808.421458 240.304377 
L 811.975921 238.573572 
L 816.241278 236.227777 
L 820.506634 233.601391 
L 824.77199 230.709369 
L 829.037346 227.568176 
L 834.013595 223.612462 
L 838.989844 219.372646 
L 844.676986 214.221495 
L 851.07502 208.099278 
L 858.183948 200.982707 
L 868.136446 190.672766 
L 871.690909 186.945934 
L 871.690909 186.945934 
" clip-path="url(#p60c9f9bf4d)" style="fill: none; stroke: #ffffff; stroke-width: 1.5; stroke-linecap: square"/>
   </g>
  </g>
 </g>
 <defs>
  <clipPath id="p60c9f9bf4d">
   <rect x="126" y="34.56" width="781.2" height="221.76"/>
  </clipPath>
 </defs>
</svg>
